# xmcd
#
# Track frame offsets:
#	150
#	22839
#	44253
#	65201
#	84604
#	100877
#	121022
#	138620
#	158241
#	180006
#	200873
#
# Disc length: 2930 seconds
#
# Revision: 2
# Processed by: cddbd v1.5.2PL0 Copyright (c) Steve Scherf et al.
# Submitted via: EZCDAudioConverter 1.0.4.1
#
DISCID=900b700b
DTITLE=Various Artist - My CD
DYEAR=1900
DGENRE=Blues
TTITLE0=1 Audio Track
TTITLE1=2 Audio Track
TTITLE2=3 Audio Track
TTITLE3=4 Audio Track
TTITLE4=5 Audio Track
TTITLE5=6 Audio Track
TTITLE6=7 Audio Track
TTITLE7=8 Audio Track
TTITLE8=9 Audio Track
TTITLE9=10 Audio Track
TTITLE10=11 Audio Track
EXTD=
EXTT0=
EXTT1=
EXTT2=
EXTT3=
EXTT4=
EXTT5=
EXTT6=
EXTT7=
EXTT8=
EXTT9=
EXTT10=
PLAYORDER=
